<svg width="20" height="18" viewBox="0 0 20 18" fill="none" xmlns="http://www.w3.org/2000/svg">
<path d="M9.70107 18C14.852 18 19.0276 13.9706 19.0276 9C19.0276 4.02943 14.852 0 9.70107 0C4.55015 0 0.374512 4.02943 0.374512 9C0.374512 13.9706 4.55015 18 9.70107 18ZM9.03489 5.78571C9.03489 5.61522 9.10508 5.4517 9.23001 5.33115C9.35494 5.21059 9.52439 5.14286 9.70107 5.14286C9.87775 5.14286 10.0472 5.21059 10.1721 5.33115C10.2971 5.4517 10.3673 5.61522 10.3673 5.78571V8.35714H13.032C13.2087 8.35714 13.3781 8.42487 13.503 8.54543C13.628 8.66599 13.6982 8.8295 13.6982 9C13.6982 9.1705 13.628 9.33401 13.503 9.45457C13.3781 9.57513 13.2087 9.64286 13.032 9.64286H10.3673V12.2143C10.3673 12.3848 10.2971 12.5483 10.1721 12.6689C10.0472 12.7894 9.87775 12.8571 9.70107 12.8571C9.52439 12.8571 9.35494 12.7894 9.23001 12.6689C9.10508 12.5483 9.03489 12.3848 9.03489 12.2143V9.64286H6.37016C6.19347 9.64286 6.02403 9.57513 5.8991 9.45457C5.77416 9.33401 5.70397 9.1705 5.70397 9C5.70397 8.8295 5.77416 8.66599 5.8991 8.54543C6.02403 8.42487 6.19347 8.35714 6.37016 8.35714H9.03489V5.78571Z" fill="#93CAED"/>
</svg>
