<svg width="24" height="24" viewBox="0 0 24 24" fill="none" xmlns="http://www.w3.org/2000/svg">
<path d="M23.2811 21.195L23.0154 20.9606C22.2619 20.2892 21.6023 19.5193 21.0545 18.6716C20.4563 17.5017 20.0977 16.2241 19.9998 14.9138V11.0545C19.9967 10.5857 19.9549 10.118 19.8748 9.65605C18.5515 9.38405 17.3628 8.66311 16.51 7.61527C15.6572 6.56744 15.1927 5.2571 15.1952 3.9061V3.41392C14.3795 3.01251 13.5031 2.74854 12.6015 2.63267V1.64831C12.6015 1.3717 12.4916 1.10642 12.296 0.910823C12.1004 0.71523 11.8351 0.605347 11.5585 0.605347C11.2819 0.605347 11.0166 0.71523 10.821 0.910823C10.6254 1.10642 10.5155 1.3717 10.5155 1.64831V2.67174C8.49658 2.95654 6.64883 3.96215 5.31341 5.50291C3.97799 7.04367 3.24507 9.01554 3.24997 11.0545V14.9138C3.15213 16.2241 2.79355 17.5017 2.19529 18.6716C1.65693 19.5172 1.00796 20.287 0.265623 20.9606L0 21.195V23.3981H23.2811V21.195Z" fill="#93CAED"/>
</svg>
