<svg width="23" height="22" viewBox="0 0 23 22" fill="none" xmlns="http://www.w3.org/2000/svg">
<path d="M19.353 3.09633C19.353 2.90428 19.3152 2.7141 19.2417 2.53666C19.1682 2.35922 19.0605 2.19799 18.9247 2.06218C18.7889 1.92637 18.6277 1.81864 18.4503 1.74514C18.2728 1.67164 18.0827 1.63381 17.8906 1.63381H15.8501V0.666101C15.8501 0.48944 15.7799 0.320015 15.655 0.195096C15.5301 0.0701783 15.3607 0 15.184 0C15.0073 0 14.8379 0.0701783 14.713 0.195096C14.5881 0.320015 14.5179 0.48944 14.5179 0.666101V1.63381H4.8352V0.666101C4.8352 0.48944 4.76502 0.320015 4.6401 0.195096C4.51518 0.0701783 4.34576 0 4.1691 0C3.99243 0 3.82301 0.0701783 3.69809 0.195096C3.57317 0.320015 3.50299 0.48944 3.50299 0.666101V1.63381H1.46241C1.27035 1.63381 1.08018 1.67164 0.902742 1.74514C0.725306 1.81864 0.564086 1.92637 0.428287 2.06218C0.292488 2.19799 0.18477 2.35922 0.111284 2.53666C0.0377984 2.7141 -1.60327e-05 2.90428 5.09928e-09 3.09633V3.91042H19.353V3.09633Z" fill="white"/>
<path d="M16.2696 10.1326C15.096 10.1326 13.9488 10.4806 12.973 11.1326C11.9972 11.7846 11.2367 12.7113 10.7876 13.7956C10.3385 14.8798 10.221 16.0729 10.45 17.2239C10.6789 18.375 11.2441 19.4322 12.0739 20.2621C12.9038 21.0919 13.9611 21.657 15.1121 21.886C16.2631 22.1149 17.4562 21.9974 18.5404 21.5483C19.6247 21.0992 20.5514 20.3386 21.2034 19.3629C21.8554 18.3871 22.2034 17.2398 22.2034 16.0663C22.2034 15.287 22.0499 14.5154 21.7517 13.7955C21.4535 13.0756 21.0164 12.4215 20.4654 11.8705C19.9144 11.3195 19.2603 10.8824 18.5404 10.5842C17.8204 10.286 17.0488 10.1326 16.2696 10.1326ZM19.7961 16.927C19.7961 16.9775 19.7862 17.0274 19.7669 17.074C19.7476 17.1205 19.7193 17.1629 19.6837 17.1985C19.648 17.2342 19.6057 17.2624 19.5591 17.2817C19.5126 17.301 19.4626 17.3109 19.4122 17.3109H17.5143V19.2089C17.5143 19.3107 17.4738 19.4083 17.4018 19.4803C17.3299 19.5523 17.2322 19.5927 17.1304 19.5928H15.4089C15.3071 19.5927 15.2094 19.5523 15.1374 19.4803C15.0655 19.4083 15.025 19.3107 15.025 19.2089V17.3109H13.1271C13.0767 17.3109 13.0267 17.301 12.9802 17.2817C12.9336 17.2624 12.8913 17.2342 12.8556 17.1985C12.82 17.1629 12.7917 17.1205 12.7724 17.074C12.7531 17.0274 12.7432 16.9775 12.7432 16.927V15.2055C12.7432 15.1551 12.7531 15.1052 12.7724 15.0586C12.7917 15.012 12.82 14.9697 12.8556 14.9341C12.8913 14.8984 12.9336 14.8701 12.9802 14.8508C13.0267 14.8315 13.0767 14.8216 13.1271 14.8216H15.025V12.9237C15.025 12.8733 15.0349 12.8234 15.0542 12.7768C15.0735 12.7302 15.1018 12.6879 15.1374 12.6522C15.1731 12.6166 15.2154 12.5883 15.262 12.569C15.3086 12.5497 15.3585 12.5398 15.4089 12.5398H17.1304C17.2323 12.5398 17.3299 12.5803 17.4019 12.6523C17.4739 12.7243 17.5143 12.8219 17.5143 12.9237V14.8216H19.4122C19.4627 14.8216 19.5126 14.8315 19.5592 14.8508C19.6057 14.8701 19.6481 14.8984 19.6837 14.9341C19.7194 14.9697 19.7476 15.012 19.7669 15.0586C19.7862 15.1052 19.7961 15.1551 19.7961 15.2055L19.7961 16.927Z" fill="white"/>
<path d="M6.43378 16.6411V14.5337H9.17353C9.41514 13.4099 9.92067 12.3596 10.6484 11.4697V10.7406H11.3439C12.3272 9.82568 13.5457 9.20223 14.863 8.93992V6.9475H17.3917V8.89637C18.0708 9.00193 18.7313 9.20419 19.3531 9.49697V5.24268H1.51709e-09V17.1053C-8.74618e-06 17.2974 0.0378127 17.4876 0.111305 17.665C0.184797 17.8425 0.29252 18.0037 0.428323 18.1395C0.564127 18.2753 0.725351 18.383 0.902789 18.4565C1.08023 18.53 1.27041 18.5678 1.46246 18.5678H9.45692C9.22818 17.9479 9.08473 17.2997 9.03053 16.6411H6.43378ZM10.6484 6.9475H13.1772V9.05476H10.6484V6.9475ZM6.43378 6.9475H8.9625V9.05476H6.43378V6.9475ZM6.43378 10.7406H8.9625V12.8479H6.43378V10.7406ZM4.74799 16.6411H2.21923V14.5337H4.748L4.74799 16.6411ZM4.74799 12.8479H2.21923V10.7406H4.748L4.74799 12.8479Z" fill="white"/>
</svg>
