<svg width="28" height="28" viewBox="0 0 28 28" fill="none" xmlns="http://www.w3.org/2000/svg">
<path d="M0 14C0 10.287 1.475 6.72601 4.1005 4.1005C6.72601 1.475 10.287 0 14 0C17.713 0 21.274 1.475 23.8995 4.1005C26.525 6.72601 28 10.287 28 14C28 17.713 26.525 21.274 23.8995 23.8995C21.274 26.525 17.713 28 14 28C10.287 28 6.72601 26.525 4.1005 23.8995C1.475 21.274 0 17.713 0 14ZM20.5912 11.4912C20.7214 11.361 20.8246 11.2065 20.8951 11.0364C20.9655 10.8664 21.0018 10.6841 21.0018 10.5C21.0018 10.3159 20.9655 10.1336 20.8951 9.96357C20.8246 9.7935 20.7214 9.63897 20.5912 9.5088C20.461 9.37863 20.3065 9.27538 20.1364 9.20493C19.9664 9.13449 19.7841 9.09823 19.6 9.09823C19.4159 9.09823 19.2336 9.13449 19.0636 9.20493C18.8935 9.27538 18.739 9.37863 18.6088 9.5088L12.6 15.5204L9.3912 12.3088C9.26103 12.1786 9.1065 12.0754 8.93643 12.0049C8.76636 11.9345 8.58408 11.8982 8.4 11.8982C8.21592 11.8982 8.03364 11.9345 7.86357 12.0049C7.6935 12.0754 7.53897 12.1786 7.4088 12.3088C7.27863 12.439 7.17538 12.5935 7.10493 12.7636C7.03449 12.9336 6.99823 13.1159 6.99823 13.3C6.99823 13.4841 7.03449 13.6664 7.10493 13.8364C7.17538 14.0065 7.27863 14.161 7.4088 14.2912L11.6088 18.4912C11.7388 18.6216 11.8933 18.725 12.0634 18.7956C12.2335 18.8662 12.4159 18.9025 12.6 18.9025C12.7841 18.9025 12.9665 18.8662 13.1366 18.7956C13.3067 18.725 13.4612 18.6216 13.5912 18.4912L20.5912 11.4912Z" fill="#93CAED"/>
</svg>
