<svg width="22" height="22" viewBox="0 0 22 22" fill="none" xmlns="http://www.w3.org/2000/svg">
<path d="M20.3958 0H1.60417C0.719583 0 0 0.719583 0 1.60417V3.89583C0 4.78042 0.719583 5.5 1.60417 5.5H20.3958C21.2804 5.5 22 4.78042 22 3.89583V1.60417C22 0.719583 21.2804 0 20.3958 0Z" fill="#fff"/>
<path d="M1.60417 22H8.47917C9.36375 22 10.0833 21.2805 10.0833 20.3959V8.93754C10.0833 8.05296 9.36375 7.33337 8.47917 7.33337H1.60417C0.719583 7.33337 0 8.05296 0 8.93754V20.3959C0 21.2805 0.719583 22 1.60417 22Z" fill="#fff"/>
<path d="M20.3959 7.33337H13.5209C12.6363 7.33337 11.9167 8.05296 11.9167 8.93754V12.1459C11.9167 13.0305 12.6363 13.75 13.5209 13.75H20.3959C21.2805 13.75 22.0001 13.0305 22.0001 12.1459V8.93754C22.0001 8.05296 21.2805 7.33337 20.3959 7.33337Z" fill="#fff"/>
<path d="M20.3959 15.5834H13.5209C12.6363 15.5834 11.9167 16.303 11.9167 17.1875V20.3959C11.9167 21.2805 12.6363 22 13.5209 22H20.3959C21.2805 22 22.0001 21.2805 22.0001 20.3959V17.1875C22.0001 16.303 21.2805 15.5834 20.3959 15.5834Z" fill="#fff"/>
</svg>
