<svg width="26" height="21" viewBox="0 0 26 21" fill="none" xmlns="http://www.w3.org/2000/svg">
<path d="M0 7.07386L11.6554 12.9016C11.7846 12.9663 11.927 13 12.0714 13C12.2159 13 12.3583 12.9663 12.4874 12.9016L20.3859 8.95329C21.5991 9.39444 22.928 9.3997 24.1447 8.96814L24.1429 16.7143C24.1429 17.6994 23.7515 18.6441 23.055 19.3407C22.3584 20.0372 21.4137 20.4286 20.4286 20.4286H3.71429C2.7292 20.4286 1.78445 20.0372 1.08789 19.3407C0.391325 18.6441 0 17.6994 0 16.7143V7.07386ZM3.71429 1.85714L17.0319 1.85343C16.8276 2.43471 16.7143 3.06057 16.7143 3.71429C16.7143 5.33557 17.407 6.79529 18.512 7.813L12.0714 11.0314L0.0408571 5.01429C0.174169 4.1356 0.618129 3.33384 1.29214 2.75455C1.96616 2.17527 2.82554 1.85686 3.71429 1.85714ZM22.2857 0C23.2708 0 24.2155 0.391325 24.9121 1.08789C25.6087 1.78445 26 2.7292 26 3.71429C26 4.69938 25.6087 5.64412 24.9121 6.34068C24.2155 7.03725 23.2708 7.42857 22.2857 7.42857C21.3006 7.42857 20.3559 7.03725 19.6593 6.34068C18.9628 5.64412 18.5714 4.69938 18.5714 3.71429C18.5714 2.7292 18.9628 1.78445 19.6593 1.08789C20.3559 0.391325 21.3006 0 22.2857 0Z" fill="#93CAED"/>
</svg>
