<svg width="21" height="22" viewBox="0 0 21 22" fill="none" xmlns="http://www.w3.org/2000/svg">
<path d="M17.5828 10.3984V19.1469C17.5828 20.0093 18.2844 20.7109 19.1468 20.7109C20.0092 20.7109 20.7109 20.0093 20.7109 19.1469V10.3984H17.5828Z" fill="white"/>
<path d="M6.65444 4.62646H4.03979V7.24111H6.65444V4.62646Z" fill="white"/>
<path d="M16.2938 19.1469V0H0V19.198C0 20.7432 1.25684 22 2.80199 22H19.1469C17.5734 22 16.2938 20.72 16.2938 19.1469ZM2.75086 3.33738H7.94363V8.53016H2.75086V3.33738ZM13.707 17.7027H2.64945V16.4136H13.707V17.7027ZM13.707 14.7379H2.64945V13.4488H13.707V14.7379ZM13.707 11.773H2.64945V10.4839H13.707V11.773Z" fill="white"/>
</svg>
