<svg width="22" height="22" viewBox="0 0 22 22" fill="none" xmlns="http://www.w3.org/2000/svg">
<path d="M0 16.1133C0 16.9439 0.67332 17.6172 1.50391 17.6172H20.4102C21.2407 17.6172 21.9141 16.9439 21.9141 16.1133V15.0391H0V16.1133Z" fill="white"/>
<path d="M15.2539 20.7109H14.1797V18.9062H7.73438V20.7109H6.66016C6.3042 20.7109 6.01562 20.9995 6.01562 21.3555C6.01562 21.7114 6.3042 22 6.66016 22H15.2539C15.6099 22 15.8984 21.7114 15.8984 21.3555C15.8984 20.9995 15.6099 20.7109 15.2539 20.7109Z" fill="white"/>
<path d="M6.66005 7.94922C5.19228 7.94922 3.98533 9.08729 3.87524 10.5273H9.44485C9.33477 9.08729 8.12782 7.94922 6.66005 7.94922Z" fill="white"/>
<path d="M6.66016 6.66016C7.25343 6.66016 7.73438 6.17921 7.73438 5.58594C7.73438 4.99266 7.25343 4.51172 6.66016 4.51172C6.06688 4.51172 5.58594 4.99266 5.58594 5.58594C5.58594 6.17921 6.06688 6.66016 6.66016 6.66016Z" fill="white"/>
<path d="M15.0391 3.22266C13.3806 3.22266 12.0312 4.57196 12.0312 6.23047C12.0312 7.88898 13.3806 9.23828 15.0391 9.23828C16.6976 9.23828 18.0469 7.88898 18.0469 6.23047C18.0469 4.57196 16.6976 3.22266 15.0391 3.22266ZM16.8621 5.7747L15.0391 7.59773C14.7874 7.84945 14.3793 7.84945 14.1276 7.59773L13.2161 6.68624C12.9644 6.43453 12.9644 6.02645 13.2161 5.77474C13.4678 5.52303 13.8759 5.52303 14.1276 5.77474L14.5833 6.23047L15.9506 4.8632C16.2023 4.61149 16.6104 4.61149 16.8621 4.8632C17.1138 5.11491 17.1138 5.52299 16.8621 5.7747Z" fill="white"/>
<path d="M20.4102 0H1.50391C0.67332 0 0 0.67332 0 1.50391V13.75H21.9141V1.50391C21.9141 0.67332 21.2407 0 20.4102 0ZM10.7422 11.1719C10.7422 11.5278 10.4536 11.8164 10.0977 11.8164H3.22266C2.8667 11.8164 2.57812 11.5278 2.57812 11.1719V10.7422C2.57812 9.1456 3.49963 7.76041 4.83854 7.08989C4.50038 6.681 4.29688 6.15678 4.29688 5.58594C4.29688 4.28282 5.35704 3.22266 6.66016 3.22266C7.96327 3.22266 9.02344 4.28282 9.02344 5.58594C9.02344 6.15678 8.81994 6.681 8.48177 7.08989C9.82068 7.76041 10.7422 9.1456 10.7422 10.7422V11.1719ZM15.0391 10.5273C12.6698 10.5273 10.7422 8.59977 10.7422 6.23047C10.7422 3.86117 12.6698 1.93359 15.0391 1.93359C17.4084 1.93359 19.3359 3.86117 19.3359 6.23047C19.3359 8.59977 17.4084 10.5273 15.0391 10.5273Z" fill="white"/>
</svg>
