<svg width="28" height="28" viewBox="0 0 28 28" fill="none" xmlns="http://www.w3.org/2000/svg">
<path d="M14 0C6.26613 0 0 6.26613 0 14C0 21.7339 6.26613 28 14 28C21.7339 28 28 21.7339 28 14C28 6.26613 21.7339 0 14 0ZM13.0968 18.5161C13.0968 19.0129 12.6903 19.4194 12.1935 19.4194H9.48387C8.9871 19.4194 8.58064 19.0129 8.58064 18.5161V9.48387C8.58064 8.9871 8.9871 8.58064 9.48387 8.58064H12.1935C12.6903 8.58064 13.0968 8.9871 13.0968 9.48387V18.5161ZM19.4194 18.5161C19.4194 19.0129 19.0129 19.4194 18.5161 19.4194H15.8065C15.3097 19.4194 14.9032 19.0129 14.9032 18.5161V9.48387C14.9032 8.9871 15.3097 8.58064 15.8065 8.58064H18.5161C19.0129 8.58064 19.4194 8.9871 19.4194 9.48387V18.5161Z" fill="#212121"/>
</svg>
