<svg width="22" height="23" viewBox="0 0 22 23" fill="none" xmlns="http://www.w3.org/2000/svg">
<path d="M12.1861 0.388674C12.5095 0.388674 12.7987 0.589971 12.9076 0.891368L13.6842 3.04404C13.9625 3.11334 14.2012 3.18264 14.4036 3.25524C14.6247 3.33444 14.9096 3.45434 15.2616 3.61823L17.07 2.66125C17.2176 2.58304 17.3866 2.55482 17.5516 2.5808C17.7166 2.60678 17.8688 2.68557 17.9852 2.80534L19.5758 4.44982C19.787 4.66872 19.8464 4.98882 19.7276 5.26821L18.8795 7.25589C19.0203 7.51439 19.1325 7.73549 19.2183 7.92028C19.3107 8.12158 19.4251 8.39878 19.5615 8.75627L21.5381 9.60326C21.8351 9.72976 22.0188 10.0268 21.999 10.3447L21.8538 12.6271C21.8439 12.7754 21.7907 12.9175 21.7007 13.0358C21.6108 13.1541 21.4881 13.2434 21.3478 13.2926L19.4757 13.9581C19.4218 14.2166 19.3657 14.4377 19.3063 14.6247C19.2105 14.9135 19.1011 15.1976 18.9785 15.4761L19.919 17.5551C19.9853 17.7011 20.0032 17.8646 19.97 18.0216C19.9367 18.1786 19.8541 18.3207 19.7342 18.4274L17.9456 20.0245C17.8278 20.1293 17.6808 20.1955 17.5243 20.2144C17.3678 20.2333 17.2093 20.2039 17.07 20.1301L15.2264 19.1533C14.938 19.3061 14.6404 19.4409 14.3354 19.557L13.5302 19.8584L12.8152 21.8384C12.7623 21.9834 12.6667 22.109 12.5411 22.1987C12.4154 22.2884 12.2656 22.3381 12.1113 22.3411L10.0213 22.3884C9.86284 22.3926 9.70701 22.3475 9.57523 22.2595C9.44344 22.1714 9.34219 22.0447 9.28539 21.8967L8.4428 19.667C8.15532 19.5688 7.87067 19.4624 7.58921 19.348C7.359 19.2484 7.13227 19.1409 6.90942 19.0257L4.81945 19.9189C4.68174 19.9777 4.52992 19.9951 4.38247 19.9692C4.23502 19.9432 4.0983 19.8749 3.98896 19.7726L2.44237 18.3218C2.32723 18.2142 2.24881 18.0732 2.21822 17.9186C2.18762 17.764 2.20639 17.6038 2.27188 17.4605L3.17057 15.5025C3.05105 15.2706 2.94024 15.0343 2.83837 14.7941C2.71946 14.5001 2.60941 14.2026 2.50837 13.902L0.539398 13.3025C0.37935 13.2541 0.239755 13.1543 0.142291 13.0184C0.0448273 12.8826 -0.00505037 12.7183 0.000404211 12.5512L0.0774033 10.4382C0.0828841 10.3003 0.125953 10.1665 0.201953 10.0514C0.277952 9.93621 0.38399 9.84401 0.508598 9.78476L2.57437 8.79257C2.67007 8.44168 2.75367 8.16888 2.82737 7.96978C2.93114 7.70386 3.04638 7.44255 3.17277 7.18659L2.27738 5.29461C2.20943 5.15094 2.18879 4.98941 2.21844 4.83326C2.24809 4.67712 2.32649 4.5344 2.44237 4.42563L3.98676 2.96704C4.09502 2.86493 4.23048 2.79628 4.37684 2.76935C4.5232 2.74242 4.67423 2.75836 4.81175 2.81524L6.89952 3.67763C7.13052 3.52364 7.33952 3.39934 7.52871 3.29924C7.75421 3.17934 8.05561 3.05394 8.4351 2.91864L9.16109 0.893568C9.21477 0.745365 9.31287 0.617341 9.44202 0.526976C9.57117 0.436612 9.72506 0.388313 9.88268 0.388674H12.1861ZM11.0267 8.10948C9.19299 8.10948 7.70691 9.57796 7.70691 11.3907C7.70691 13.2035 9.19299 14.6731 11.0267 14.6731C12.8592 14.6731 14.3453 13.2035 14.3453 11.3907C14.3453 9.57796 12.8603 8.10948 11.0267 8.10948Z" fill="white"/>
</svg>
