<svg width="48" height="48" viewBox="0 0 48 48" fill="none" xmlns="http://www.w3.org/2000/svg">
<path d="M24 48C37.2548 48 48 37.2548 48 24C48 10.7452 37.2548 0 24 0C10.7452 0 0 10.7452 0 24C0 37.2548 10.7452 48 24 48Z" fill="#E6ECFF"/>
<path d="M43.26 38.3029C41.0216 35.3062 38.1152 32.8729 34.7716 31.1963C31.428 29.5198 27.7395 28.6462 23.9991 28.645C20.2587 28.6438 16.5696 29.5151 13.225 31.1896C9.88036 32.864 6.97239 35.2955 4.73218 38.2909C6.961 41.3013 9.86422 43.7477 13.2091 45.4338C16.5539 47.1198 20.2473 47.9987 23.993 47.9999C27.7388 48.001 31.4327 47.1245 34.7786 45.4405C38.1245 43.7566 41.0293 41.312 43.26 38.3029Z" fill="#93CAED"/>
<path d="M24.0005 25.5483C29.1314 25.5483 33.2908 21.3889 33.2908 16.258C33.2908 11.1271 29.1314 6.96765 24.0005 6.96765C18.8696 6.96765 14.7102 11.1271 14.7102 16.258C14.7102 21.3889 18.8696 25.5483 24.0005 25.5483Z" fill="#93CAED"/>
</svg>
