<svg width="22" height="22" viewBox="0 0 22 22" fill="none" xmlns="http://www.w3.org/2000/svg">
<path d="M20.7109 15.3528V18.3646H1.28906V15.3528H0V18.6243C0 19.5946 0.639246 20.4183 1.51864 20.6968V22H2.80771V20.7979H19.1923V22H20.4814V20.6968C21.3608 20.4183 22 19.5946 22 18.6243V15.3528H20.7109Z" fill="white"/>
<path d="M7.32191 17.0933V17.0755V12.2265C7.32191 11.4798 6.71657 10.8745 5.9699 10.8745H3.93868C3.19197 10.8745 2.58667 11.4799 2.58667 12.2265V17.0755V17.0933H7.32191Z" fill="white"/>
<path d="M13.3891 17.0933V17.0755V12.2265C13.3891 11.4798 12.7837 10.8745 12.037 10.8745H9.96285C9.21614 10.8745 8.61084 11.4799 8.61084 12.2265V17.0755V17.0933H13.3891Z" fill="white"/>
<path d="M19.4135 17.0933V17.0755V12.2265C19.4135 11.4798 18.8081 10.8745 18.0615 10.8745H16.0302C15.2835 10.8745 14.6782 11.4799 14.6782 12.2265V17.0755V17.0933H19.4135Z" fill="white"/>
<path d="M11 7.61617C13.0998 7.61617 14.8081 5.90786 14.8081 3.80811C14.8081 1.70831 13.0998 0 11 0C8.9002 0 7.19189 1.70831 7.19189 3.80811C7.19189 5.90786 8.9002 7.61617 11 7.61617ZM10.3555 3.83174V1.80576H11.6445V4.43841L10.095 5.77556L9.27334 4.78229L10.3555 3.83174Z" fill="white"/>
</svg>
